Coordinates
version=1
nRows=17
nColumns=38
inDegrees=no

Units are S.I. units (second, meters, Newtons, ...)
If the header above contains a line with 'inDegrees', this indicates whether rotational values are in degrees (yes) or radians (no).

endheader
time	pelvis_tilt	pelvis_list	pelvis_rotation	pelvis_tx	pelvis_ty	pelvis_tz	hip_flexion_r	hip_adduction_r	hip_rotation_r	knee_angle_r	ankle_angle_r	subtalar_angle_r	mtp_angle_r	hip_flexion_l	hip_adduction_l	hip_rotation_l	knee_angle_l	ankle_angle_l	subtalar_angle_l	mtp_angle_l	lumbar_extension	lumbar_bending	lumbar_rotation	arm_flex_r	arm_add_r	arm_rot_r	elbow_flex_r	pro_sup_r	wrist_flex_r	wrist_dev_r	arm_flex_l	arm_add_l	arm_rot_l	elbow_flex_l	pro_sup_l	wrist_flex_l	wrist_dev_l
0.88	0.0212663	1.39382	-1.51523	0.884801	0.670802	0.930998	0.0565927	-0.00906985	-0.577175	0.380448	0.136947	0	0	0.0478585	-0.125649	-0.0699353	1.21677	-0.282012	0	0	-0.052408	0.0154735	0.0571263	0.0977292	-0.432239	-0.352014	1.82361	0.875455	0	0	0.246834	-0.319782	-0.0676278	1.8446	0.779539	0	0
0.89	0.0454832	1.39269	-1.54261	0.883669	0.660222	0.932536	0.040407	-0.0100637	-0.57283	0.375835	0.144116	0	0	0.0859075	-0.11926	-0.0540703	1.26161	-0.231011	0	0	-0.054619	0.0112565	0.0615201	0.0993533	-0.432148	-0.352881	1.82569	0.867844	0	0	0.247083	-0.317121	-0.0701304	1.84616	0.777706	0	0
0.9	0.0719564	1.39249	-1.57355	0.882406	0.649688	0.934082	0.0249	-0.0117885	-0.567607	0.369999	0.14915	0	0	0.122851	-0.112288	-0.0417774	1.29755	-0.18964	0	0	-0.0554614	0.00645078	0.0667463	0.100877	-0.431491	-0.353068	1.82721	0.861048	0	0	0.246077	-0.314443	-0.0730561	1.84768	0.774618	0	0
0.91	0.0976939	1.39338	-1.60504	0.881034	0.639274	0.93556	0.010684	-0.0134466	-0.56205	0.363573	0.153098	0	0	0.159237	-0.105357	-0.0326812	1.32541	-0.159516	0	0	-0.054844	0.00179553	0.0729839	0.102398	-0.431003	-0.352385	1.82834	0.853868	0	0	0.24423	-0.311982	-0.0758682	1.8489	0.771346	0	0
0.92	0.121643	1.39639	-1.63586	0.879576	0.62888	0.936868	-0.0012687	-0.0144253	-0.555405	0.356241	0.156227	0	0	0.19673	-0.099671	-0.0269342	1.34657	-0.138565	0	0	-0.0530126	-0.000135007	0.07439	0.110164	-0.430994	-0.342528	1.82985	0.848872	0	0	0.250348	-0.283972	-0.268893	1.81341	1.5708	0	0
0.93	0.150466	1.39833	-1.67265	0.878034	0.618626	0.938243	-0.0142524	-0.0163266	-0.548187	0.348188	0.159143	0	0	0.230105	-0.0932845	-0.0238141	1.35862	-0.1228	0	0	-0.0504023	-0.0052462	0.0830905	0.110901	-0.431218	-0.341868	1.82981	0.847474	0	0	0.249726	-0.281847	-0.271587	1.81249	1.5708	0	0
0.94	0.18264	1.40019	-1.71378	0.876401	0.608423	0.939564	-0.026599	-0.0186377	-0.541824	0.339796	0.161176	0	0	0.261287	-0.0873932	-0.0238638	1.36347	-0.109532	0	0	-0.0475748	-0.0110095	0.092787	0.111594	-0.431882	-0.340544	1.82964	0.846011	0	0	0.249396	-0.280909	-0.273114	1.8118	1.5708	0	0
0.95	0.227594	1.39966	-1.76823	0.874723	0.598446	0.941065	-0.0403972	-0.0238473	-0.536187	0.33124	0.162495	0	0	0.28628	-0.0778398	-0.0250697	1.35828	-0.095693	0	0	-0.0454857	-0.0219305	0.108985	0.106172	-0.43208	-0.348015	1.82775	0.844831	0	0	0.24383	-0.305578	-0.0849824	1.84697	0.775491	0	0
0.96	0.261329	1.40096	-1.81263	0.872977	0.588315	0.94218	-0.0529048	-0.0259762	-0.52737	0.321344	0.164096	0	0	0.313725	-0.0737808	-0.0307247	1.35102	-0.08295	0	0	-0.0429185	-0.028018	0.120366	0.106875	-0.433447	-0.346694	1.82766	0.845254	0	0	0.244645	-0.306233	-0.0848357	1.84696	0.772128	0	0
0.97	0.301893	1.40137	-1.86422	0.871197	0.57826	0.943336	-0.0661429	-0.029646	-0.517632	0.311165	0.16563	0	0	0.337491	-0.0680468	-0.0377889	1.33556	-0.0688408	0	0	-0.0410344	-0.0355949	0.131772	0.107983	-0.434264	-0.344926	1.82705	0.847419	0	0	0.245688	-0.307363	-0.0853221	1.84674	0.774747	0	0
0.98	0.354649	1.39989	-1.9277	0.869421	0.568378	0.944661	-0.0804289	-0.0365863	-0.508794	0.300514	0.165362	0	0	0.355581	-0.0579474	-0.0445094	1.30979	-0.0525082	0	0	-0.0406248	-0.0461259	0.14242	0.110025	-0.43348	-0.343079	1.82574	0.851374	0	0	0.247174	-0.309232	-0.0867794	1.84654	0.778295	0	0
0.99	0.39368	1.40057	-1.97786	0.867623	0.558269	0.945546	-0.0936877	-0.0398933	-0.499166	0.287973	0.164608	0	0	0.375535	-0.0539569	-0.0544836	1.28271	-0.0376653	0	0	-0.0397407	-0.0512113	0.147643	0.117876	-0.43324	-0.332829	1.82645	0.854944	0	0	0.254017	-0.287502	-0.272451	1.81138	1.5708	0	0
1	0.409553	1.40161	-2.0055	0.865794	0.547977	0.946029	-0.108896	-0.0389822	-0.489094	0.274436	0.165616	0	0	0.394723	-0.0581191	-0.0692288	1.25605	-0.023531	0	0	-0.0380527	-0.0539497	0.158828	0.119091	-0.434502	-0.331035	1.82774	0.856193	0	0	0.254675	-0.287982	-0.274576	1.81326	1.5708	0	0
1.01	0.45784	1.39813	-2.06309	0.864191	0.53825	0.946987	-0.124074	-0.0473468	-0.483883	0.264911	0.168406	0	0	0.402543	-0.0463938	-0.0763291	1.21084	-0.00792051	0	0	-0.0376191	-0.0670786	0.172958	0.115845	-0.432358	-0.338537	1.82466	0.864197	0	0	0.25004	-0.313997	-0.0878121	1.85031	0.773978	0	0
1.02	0.481108	1.39828	-2.09648	0.862509	0.528154	0.947277	-0.138417	-0.0492565	-0.476416	0.253463	0.17054	0	0	0.414014	-0.0462096	-0.0899673	1.16923	0.00360664	0	0	-0.0362615	-0.0718654	0.181848	0.118703	-0.431641	-0.337888	1.82356	0.874392	0	0	0.250678	-0.315289	-0.0886771	1.85269	0.765549	0	0
1.03	0.50849	1.39958	-2.13313	0.860895	0.518026	0.947348	-0.150979	-0.0511921	-0.468458	0.242334	0.172102	0	0	0.423995	-0.0456195	-0.10403	1.12191	0.0125521	0	0	-0.0338216	-0.0779455	0.193428	0.15116	-0.406532	-0.495147	1.77585	1.5708	0	0	0.25492	-0.315409	-0.0854157	1.85297	0.763557	0	0
1.04	0.519861	1.40058	-2.1535	0.859413	0.507932	0.947141	-0.164866	-0.0508584	-0.459587	0.231903	0.174043	0	0	0.431542	-0.0483877	-0.120549	1.07348	0.0198119	0	0	-0.0337894	-0.0768507	0.191245	0.129874	-0.430242	-0.323415	1.82552	0.873056	0	0	0.259504	-0.292464	-0.281536	1.81699	1.5708	0	0
